<svg aria-roledescription="er" role="graphics-document document" viewBox="-3.0372314453125 0 187.81993103027344 1088" style="max-width: 187.82px; background-color: white;" xmlns:xlink="http://www.w3.org/1999/xlink" xmlns="http://www.w3.org/2000/svg" width="100%" id="my-svg"><style>#my-svg{font-family:"trebuchet ms",verdana,arial,sans-serif;font-size:16px;fill:#000000;}#my-svg .error-icon{fill:#552222;}#my-svg .error-text{fill:#552222;stroke:#552222;}#my-svg .edge-thickness-normal{stroke-width:1px;}#my-svg .edge-thickness-thick{stroke-width:3.5px;}#my-svg .edge-pattern-solid{stroke-dasharray:0;}#my-svg .edge-thickness-invisible{stroke-width:0;fill:none;}#my-svg .edge-pattern-dashed{stroke-dasharray:3;}#my-svg .edge-pattern-dotted{stroke-dasharray:2;}#my-svg .marker{fill:#000000;stroke:#000000;}#my-svg .marker.cross{stroke:#000000;}#my-svg svg{font-family:"trebuchet ms",verdana,arial,sans-serif;font-size:16px;}#my-svg p{margin:0;}#my-svg .entityBox{fill:#cde498;stroke:#13540c;}#my-svg .attributeBoxOdd{fill:#ffffff;stroke:#13540c;}#my-svg .attributeBoxEven{fill:#f2f2f2;stroke:#13540c;}#my-svg .relationshipLabelBox{fill:hsl(78.1578947368, 58.4615384615%, 84.5098039216%);opacity:0.7;background-color:hsl(78.1578947368, 58.4615384615%, 84.5098039216%);}#my-svg .relationshipLabelBox rect{opacity:0.5;}#my-svg .relationshipLine{stroke:#000000;}#my-svg .entityTitleText{text-anchor:middle;font-size:18px;fill:#000000;}#my-svg #MD_PARENT_START{fill:#f5f5f5!important;stroke:#000000!important;stroke-width:1;}#my-svg #MD_PARENT_END{fill:#f5f5f5!important;stroke:#000000!important;stroke-width:1;}#my-svg :root{--mermaid-font-family:"trebuchet ms",verdana,arial,sans-serif;}</style><g/><defs><marker orient="auto" markerHeight="240" markerWidth="190" refY="7" refX="0" id="MD_PARENT_START"><path d="M 18,7 L9,13 L1,7 L9,1 Z"/></marker></defs><defs><marker orient="auto" markerHeight="28" markerWidth="20" refY="7" refX="19" id="MD_PARENT_END"><path d="M 18,7 L9,13 L1,7 L9,1 Z"/></marker></defs><defs><marker orient="auto" markerHeight="18" markerWidth="18" refY="9" refX="0" id="ONLY_ONE_START"><path d="M9,0 L9,18 M15,0 L15,18" fill="none" stroke="gray"/></marker></defs><defs><marker orient="auto" markerHeight="18" markerWidth="18" refY="9" refX="18" id="ONLY_ONE_END"><path d="M3,0 L3,18 M9,0 L9,18" fill="none" stroke="gray"/></marker></defs><defs><marker orient="auto" markerHeight="18" markerWidth="30" refY="9" refX="0" id="ZERO_OR_ONE_START"><circle r="6" cy="9" cx="21" fill="white" stroke="gray"/><path d="M9,0 L9,18" fill="none" stroke="gray"/></marker></defs><defs><marker orient="auto" markerHeight="18" markerWidth="30" refY="9" refX="30" id="ZERO_OR_ONE_END"><circle r="6" cy="9" cx="9" fill="white" stroke="gray"/><path d="M21,0 L21,18" fill="none" stroke="gray"/></marker></defs><defs><marker orient="auto" markerHeight="36" markerWidth="45" refY="18" refX="18" id="ONE_OR_MORE_START"><path d="M0,18 Q 18,0 36,18 Q 18,36 0,18 M42,9 L42,27" fill="none" stroke="gray"/></marker></defs><defs><marker orient="auto" markerHeight="36" markerWidth="45" refY="18" refX="27" id="ONE_OR_MORE_END"><path d="M3,9 L3,27 M9,18 Q27,0 45,18 Q27,36 9,18" fill="none" stroke="gray"/></marker></defs><defs><marker orient="auto" markerHeight="36" markerWidth="57" refY="18" refX="18" id="ZERO_OR_MORE_START"><circle r="6" cy="18" cx="48" fill="white" stroke="gray"/><path d="M0,18 Q18,0 36,18 Q18,36 0,18" fill="none" stroke="gray"/></marker></defs><defs><marker orient="auto" markerHeight="36" markerWidth="57" refY="18" refX="39" id="ZERO_OR_MORE_END"><circle r="6" cy="18" cx="9" fill="white" stroke="gray"/><path d="M21,18 Q39,0 57,18 Q39,36 21,18" fill="none" stroke="gray"/></marker></defs><path style="stroke: gray; fill: none;" marker-start="url(#ZERO_OR_MORE_START)" marker-end="url(#ZERO_OR_MORE_END)" d="M57.37,220L54.592,228.333C51.814,236.667,46.259,253.333,47.042,270C47.826,286.667,54.948,303.333,58.51,311.667L62.071,320" class="er relationshipLine"/><path style="stroke: gray; fill: none;" marker-start="url(#ZERO_OR_MORE_START)" marker-end="url(#ZERO_OR_MORE_END)" d="M60.235,900L56.979,908.333C53.724,916.667,47.214,933.333,48.919,950C50.624,966.667,60.545,983.333,65.505,991.667L70.465,1000" class="er relationshipLine"/><path style="stroke: gray; fill: none;" marker-start="url(#ZERO_OR_MORE_START)" marker-end="url(#ZERO_OR_MORE_END)" d="M121.172,744L124.427,735.667C127.683,727.333,134.193,710.667,133.062,694C131.931,677.333,123.159,660.667,118.774,652.333L114.388,644" class="er relationshipLine"/><path style="stroke: gray; fill: none;" marker-start="url(#ZERO_OR_ONE_START)" marker-end="url(#ONLY_ONE_END)" d="M110.941,1000L115.902,991.667C120.862,983.333,130.783,966.667,132.488,950C134.193,933.333,127.683,916.667,124.427,908.333L121.172,900" class="er relationshipLine"/><path style="stroke: gray; fill: none;" marker-start="url(#ZERO_OR_ONE_START)" marker-end="url(#ONLY_ONE_END)" d="M119.336,320L122.897,311.667C126.458,303.333,133.581,286.667,134.364,270C135.148,253.333,129.592,236.667,126.814,228.333L124.037,220" class="er relationshipLine"/><path style="stroke: gray; fill: none;" marker-start="url(#ZERO_OR_MORE_START)" marker-end="url(#ZERO_OR_MORE_END)" d="M62.071,454L58.51,462.333C54.948,470.667,47.826,487.333,48.651,504C49.475,520.667,58.247,537.333,62.633,545.667L67.019,554" class="er relationshipLine"/><path style="stroke: gray; fill: none;" marker-start="url(#ZERO_OR_ONE_START)" marker-end="url(#ONLY_ONE_END)" d="M114.388,554L118.774,545.667C123.159,537.333,131.931,520.667,132.756,504C133.581,487.333,126.458,470.667,122.897,462.333L119.336,454" class="er relationshipLine"/><path style="stroke: gray; fill: none;" marker-start="url(#ZERO_OR_ONE_START)" marker-end="url(#ONLY_ONE_END)" d="M67.019,644L62.633,652.333C58.247,660.667,49.475,677.333,48.345,694C47.214,710.667,53.724,727.333,56.979,735.667L60.235,744" class="er relationshipLine"/><g transform="translate(20,20 )" id="entity-users-33ae1e26-be31-5c1d-bf65-e859e9d0308e"><rect height="200" width="141.40670776367188" y="0" x="0" class="er entityBox"/><text style="dominant-baseline: middle; text-anchor: middle; font-size: 12px;" transform="translate(70.70335388183594,12)" y="0" x="0" id="text-entity-users-33ae1e26-be31-5c1d-bf65-e859e9d0308e" class="er entityLabel">users</text><rect height="22" width="54.095550537109375" y="24" x="0" class="er attributeBoxOdd"/><text style="dominant-baseline: middle; font-size: 10.2px;" transform="translate(5,35)" y="0" x="0" id="text-entity-users-33ae1e26-be31-5c1d-bf65-e859e9d0308e-attr-1-type" class="er entityLabel">String</text><rect height="22" width="63.2955322265625" y="24" x="54.095550537109375" class="er attributeBoxOdd"/><text style="dominant-baseline: middle; font-size: 10.2px;" transform="translate(59.095550537109375,35)" y="0" x="0" id="text-entity-users-33ae1e26-be31-5c1d-bf65-e859e9d0308e-attr-1-name" class="er entityLabel">id</text><rect height="22" width="24.015625" y="24" x="117.39108276367188" class="er attributeBoxOdd"/><text style="dominant-baseline: middle; font-size: 10.2px;" transform="translate(122.39108276367188,35)" y="0" x="0" id="text-entity-users-33ae1e26-be31-5c1d-bf65-e859e9d0308e-attr-1-comment" class="er entityLabel"/><rect height="22" width="54.095550537109375" y="46" x="0" class="er attributeBoxEven"/><text style="dominant-baseline: middle; font-size: 10.2px;" transform="translate(5,57)" y="0" x="0" id="text-entity-users-33ae1e26-be31-5c1d-bf65-e859e9d0308e-attr-2-type" class="er entityLabel">String</text><rect height="22" width="63.2955322265625" y="46" x="54.095550537109375" class="er attributeBoxEven"/><text style="dominant-baseline: middle; font-size: 10.2px;" transform="translate(59.095550537109375,57)" y="0" x="0" id="text-entity-users-33ae1e26-be31-5c1d-bf65-e859e9d0308e-attr-2-name" class="er entityLabel">name</text><rect height="22" width="24.015625" y="46" x="117.39108276367188" class="er attributeBoxEven"/><text style="dominant-baseline: middle; font-size: 10.2px;" transform="translate(122.39108276367188,57)" y="0" x="0" id="text-entity-users-33ae1e26-be31-5c1d-bf65-e859e9d0308e-attr-2-comment" class="er entityLabel"/><rect height="22" width="54.095550537109375" y="68" x="0" class="er attributeBoxOdd"/><text style="dominant-baseline: middle; font-size: 10.2px;" transform="translate(5,79)" y="0" x="0" id="text-entity-users-33ae1e26-be31-5c1d-bf65-e859e9d0308e-attr-3-type" class="er entityLabel">String</text><rect height="22" width="63.2955322265625" y="68" x="54.095550537109375" class="er attributeBoxOdd"/><text style="dominant-baseline: middle; font-size: 10.2px;" transform="translate(59.095550537109375,79)" y="0" x="0" id="text-entity-users-33ae1e26-be31-5c1d-bf65-e859e9d0308e-attr-3-name" class="er entityLabel">email</text><rect height="22" width="24.015625" y="68" x="117.39108276367188" class="er attributeBoxOdd"/><text style="dominant-baseline: middle; font-size: 10.2px;" transform="translate(122.39108276367188,79)" y="0" x="0" id="text-entity-users-33ae1e26-be31-5c1d-bf65-e859e9d0308e-attr-3-comment" class="er entityLabel"/><rect height="22" width="54.095550537109375" y="90" x="0" class="er attributeBoxEven"/><text style="dominant-baseline: middle; font-size: 10.2px;" transform="translate(5,101)" y="0" x="0" id="text-entity-users-33ae1e26-be31-5c1d-bf65-e859e9d0308e-attr-4-type" class="er entityLabel">String</text><rect height="22" width="63.2955322265625" y="90" x="54.095550537109375" class="er attributeBoxEven"/><text style="dominant-baseline: middle; font-size: 10.2px;" transform="translate(59.095550537109375,101)" y="0" x="0" id="text-entity-users-33ae1e26-be31-5c1d-bf65-e859e9d0308e-attr-4-name" class="er entityLabel">password</text><rect height="22" width="24.015625" y="90" x="117.39108276367188" class="er attributeBoxEven"/><text style="dominant-baseline: middle; font-size: 10.2px;" transform="translate(122.39108276367188,101)" y="0" x="0" id="text-entity-users-33ae1e26-be31-5c1d-bf65-e859e9d0308e-attr-4-comment" class="er entityLabel"/><rect height="22" width="54.095550537109375" y="112" x="0" class="er attributeBoxOdd"/><text style="dominant-baseline: middle; font-size: 10.2px;" transform="translate(5,123)" y="0" x="0" id="text-entity-users-33ae1e26-be31-5c1d-bf65-e859e9d0308e-attr-5-type" class="er entityLabel">String</text><rect height="22" width="63.2955322265625" y="112" x="54.095550537109375" class="er attributeBoxOdd"/><text style="dominant-baseline: middle; font-size: 10.2px;" transform="translate(59.095550537109375,123)" y="0" x="0" id="text-entity-users-33ae1e26-be31-5c1d-bf65-e859e9d0308e-attr-5-name" class="er entityLabel">avatar</text><rect height="22" width="24.015625" y="112" x="117.39108276367188" class="er attributeBoxOdd"/><text style="dominant-baseline: middle; font-size: 10.2px;" transform="translate(122.39108276367188,123)" y="0" x="0" id="text-entity-users-33ae1e26-be31-5c1d-bf65-e859e9d0308e-attr-5-comment" class="er entityLabel">❓</text><rect height="22" width="54.095550537109375" y="134" x="0" class="er attributeBoxEven"/><text style="dominant-baseline: middle; font-size: 10.2px;" transform="translate(5,145)" y="0" x="0" id="text-entity-users-33ae1e26-be31-5c1d-bf65-e859e9d0308e-attr-6-type" class="er entityLabel">Boolean</text><rect height="22" width="63.2955322265625" y="134" x="54.095550537109375" class="er attributeBoxEven"/><text style="dominant-baseline: middle; font-size: 10.2px;" transform="translate(59.095550537109375,145)" y="0" x="0" id="text-entity-users-33ae1e26-be31-5c1d-bf65-e859e9d0308e-attr-6-name" class="er entityLabel">isAdmin</text><rect height="22" width="24.015625" y="134" x="117.39108276367188" class="er attributeBoxEven"/><text style="dominant-baseline: middle; font-size: 10.2px;" transform="translate(122.39108276367188,145)" y="0" x="0" id="text-entity-users-33ae1e26-be31-5c1d-bf65-e859e9d0308e-attr-6-comment" class="er entityLabel"/><rect height="22" width="54.095550537109375" y="156" x="0" class="er attributeBoxOdd"/><text style="dominant-baseline: middle; font-size: 10.2px;" transform="translate(5,167)" y="0" x="0" id="text-entity-users-33ae1e26-be31-5c1d-bf65-e859e9d0308e-attr-7-type" class="er entityLabel">DateTime</text><rect height="22" width="63.2955322265625" y="156" x="54.095550537109375" class="er attributeBoxOdd"/><text style="dominant-baseline: middle; font-size: 10.2px;" transform="translate(59.095550537109375,167)" y="0" x="0" id="text-entity-users-33ae1e26-be31-5c1d-bf65-e859e9d0308e-attr-7-name" class="er entityLabel">created_at</text><rect height="22" width="24.015625" y="156" x="117.39108276367188" class="er attributeBoxOdd"/><text style="dominant-baseline: middle; font-size: 10.2px;" transform="translate(122.39108276367188,167)" y="0" x="0" id="text-entity-users-33ae1e26-be31-5c1d-bf65-e859e9d0308e-attr-7-comment" class="er entityLabel"/><rect height="22" width="54.095550537109375" y="178" x="0" class="er attributeBoxEven"/><text style="dominant-baseline: middle; font-size: 10.2px;" transform="translate(5,189)" y="0" x="0" id="text-entity-users-33ae1e26-be31-5c1d-bf65-e859e9d0308e-attr-8-type" class="er entityLabel">DateTime</text><rect height="22" width="63.2955322265625" y="178" x="54.095550537109375" class="er attributeBoxEven"/><text style="dominant-baseline: middle; font-size: 10.2px;" transform="translate(59.095550537109375,189)" y="0" x="0" id="text-entity-users-33ae1e26-be31-5c1d-bf65-e859e9d0308e-attr-8-name" class="er entityLabel">updated_at</text><rect height="22" width="24.015625" y="178" x="117.39108276367188" class="er attributeBoxEven"/><text style="dominant-baseline: middle; font-size: 10.2px;" transform="translate(122.39108276367188,189)" y="0" x="0" id="text-entity-users-33ae1e26-be31-5c1d-bf65-e859e9d0308e-attr-8-comment" class="er entityLabel"/></g><g transform="translate(40.70335388183594,744 )" id="entity-dishes-494399ac-5edb-5e69-83c0-2063b2186967"><rect height="156" width="100" y="0" x="0" class="er entityBox"/><text style="dominant-baseline: middle; text-anchor: middle; font-size: 12px;" transform="translate(50,12)" y="0" x="0" id="text-entity-dishes-494399ac-5edb-5e69-83c0-2063b2186967" class="er entityLabel">dishes</text><rect height="22" width="37.994606018066406" y="24" x="0" class="er attributeBoxOdd"/><text style="dominant-baseline: middle; font-size: 10.2px;" transform="translate(5,35)" y="0" x="0" id="text-entity-dishes-494399ac-5edb-5e69-83c0-2063b2186967-attr-1-type" class="er entityLabel">String</text><rect height="22" width="62.005393981933594" y="24" x="37.994606018066406" class="er attributeBoxOdd"/><text style="dominant-baseline: middle; font-size: 10.2px;" transform="translate(42.994606018066406,35)" y="0" x="0" id="text-entity-dishes-494399ac-5edb-5e69-83c0-2063b2186967-attr-1-name" class="er entityLabel">id</text><rect height="22" width="37.994606018066406" y="46" x="0" class="er attributeBoxEven"/><text style="dominant-baseline: middle; font-size: 10.2px;" transform="translate(5,57)" y="0" x="0" id="text-entity-dishes-494399ac-5edb-5e69-83c0-2063b2186967-attr-2-type" class="er entityLabel">String</text><rect height="22" width="62.005393981933594" y="46" x="37.994606018066406" class="er attributeBoxEven"/><text style="dominant-baseline: middle; font-size: 10.2px;" transform="translate(42.994606018066406,57)" y="0" x="0" id="text-entity-dishes-494399ac-5edb-5e69-83c0-2063b2186967-attr-2-name" class="er entityLabel">title</text><rect height="22" width="37.994606018066406" y="68" x="0" class="er attributeBoxOdd"/><text style="dominant-baseline: middle; font-size: 10.2px;" transform="translate(5,79)" y="0" x="0" id="text-entity-dishes-494399ac-5edb-5e69-83c0-2063b2186967-attr-3-type" class="er entityLabel">String</text><rect height="22" width="62.005393981933594" y="68" x="37.994606018066406" class="er attributeBoxOdd"/><text style="dominant-baseline: middle; font-size: 10.2px;" transform="translate(42.994606018066406,79)" y="0" x="0" id="text-entity-dishes-494399ac-5edb-5e69-83c0-2063b2186967-attr-3-name" class="er entityLabel">description</text><rect height="22" width="37.994606018066406" y="90" x="0" class="er attributeBoxEven"/><text style="dominant-baseline: middle; font-size: 10.2px;" transform="translate(5,101)" y="0" x="0" id="text-entity-dishes-494399ac-5edb-5e69-83c0-2063b2186967-attr-4-type" class="er entityLabel">String</text><rect height="22" width="62.005393981933594" y="90" x="37.994606018066406" class="er attributeBoxEven"/><text style="dominant-baseline: middle; font-size: 10.2px;" transform="translate(42.994606018066406,101)" y="0" x="0" id="text-entity-dishes-494399ac-5edb-5e69-83c0-2063b2186967-attr-4-name" class="er entityLabel">category</text><rect height="22" width="37.994606018066406" y="112" x="0" class="er attributeBoxOdd"/><text style="dominant-baseline: middle; font-size: 10.2px;" transform="translate(5,123)" y="0" x="0" id="text-entity-dishes-494399ac-5edb-5e69-83c0-2063b2186967-attr-5-type" class="er entityLabel">String</text><rect height="22" width="62.005393981933594" y="112" x="37.994606018066406" class="er attributeBoxOdd"/><text style="dominant-baseline: middle; font-size: 10.2px;" transform="translate(42.994606018066406,123)" y="0" x="0" id="text-entity-dishes-494399ac-5edb-5e69-83c0-2063b2186967-attr-5-name" class="er entityLabel">price</text><rect height="22" width="37.994606018066406" y="134" x="0" class="er attributeBoxEven"/><text style="dominant-baseline: middle; font-size: 10.2px;" transform="translate(5,145)" y="0" x="0" id="text-entity-dishes-494399ac-5edb-5e69-83c0-2063b2186967-attr-6-type" class="er entityLabel">String</text><rect height="22" width="62.005393981933594" y="134" x="37.994606018066406" class="er attributeBoxEven"/><text style="dominant-baseline: middle; font-size: 10.2px;" transform="translate(42.994606018066406,145)" y="0" x="0" id="text-entity-dishes-494399ac-5edb-5e69-83c0-2063b2186967-attr-6-name" class="er entityLabel">image</text></g><g transform="translate(40.70335388183594,1000 )" id="entity-ingredients-dfe1a7c5-69b2-5c12-85c0-2b122290a70f"><rect height="68" width="100" y="0" x="0" class="er entityBox"/><text style="dominant-baseline: middle; text-anchor: middle; font-size: 12px;" transform="translate(50,12)" y="0" x="0" id="text-entity-ingredients-dfe1a7c5-69b2-5c12-85c0-2b122290a70f" class="er entityLabel">ingredients</text><rect height="22" width="50.998573303222656" y="24" x="0" class="er attributeBoxOdd"/><text style="dominant-baseline: middle; font-size: 10.2px;" transform="translate(5,35)" y="0" x="0" id="text-entity-ingredients-dfe1a7c5-69b2-5c12-85c0-2b122290a70f-attr-1-type" class="er entityLabel">String</text><rect height="22" width="49.001426696777344" y="24" x="50.998573303222656" class="er attributeBoxOdd"/><text style="dominant-baseline: middle; font-size: 10.2px;" transform="translate(55.998573303222656,35)" y="0" x="0" id="text-entity-ingredients-dfe1a7c5-69b2-5c12-85c0-2b122290a70f-attr-1-name" class="er entityLabel">id</text><rect height="22" width="50.998573303222656" y="46" x="0" class="er attributeBoxEven"/><text style="dominant-baseline: middle; font-size: 10.2px;" transform="translate(5,57)" y="0" x="0" id="text-entity-ingredients-dfe1a7c5-69b2-5c12-85c0-2b122290a70f-attr-2-type" class="er entityLabel">String</text><rect height="22" width="49.001426696777344" y="46" x="50.998573303222656" class="er attributeBoxEven"/><text style="dominant-baseline: middle; font-size: 10.2px;" transform="translate(55.998573303222656,57)" y="0" x="0" id="text-entity-ingredients-dfe1a7c5-69b2-5c12-85c0-2b122290a70f-attr-2-name" class="er entityLabel">name</text></g><g transform="translate(21.850692749023438,320 )" id="entity-orders-b199f09d-589f-57c9-bdcc-48b896df9a97"><rect height="134" width="137.705322265625" y="0" x="0" class="er entityBox"/><text style="dominant-baseline: middle; text-anchor: middle; font-size: 12px;" transform="translate(68.8526611328125,12)" y="0" x="0" id="text-entity-orders-b199f09d-589f-57c9-bdcc-48b896df9a97" class="er entityLabel">orders</text><rect height="22" width="54.095550537109375" y="24" x="0" class="er attributeBoxOdd"/><text style="dominant-baseline: middle; font-size: 10.2px;" transform="translate(5,35)" y="0" x="0" id="text-entity-orders-b199f09d-589f-57c9-bdcc-48b896df9a97-attr-1-type" class="er entityLabel">String</text><rect height="22" width="83.60977172851562" y="24" x="54.095550537109375" class="er attributeBoxOdd"/><text style="dominant-baseline: middle; font-size: 10.2px;" transform="translate(59.095550537109375,35)" y="0" x="0" id="text-entity-orders-b199f09d-589f-57c9-bdcc-48b896df9a97-attr-1-name" class="er entityLabel">id</text><rect height="22" width="54.095550537109375" y="46" x="0" class="er attributeBoxEven"/><text style="dominant-baseline: middle; font-size: 10.2px;" transform="translate(5,57)" y="0" x="0" id="text-entity-orders-b199f09d-589f-57c9-bdcc-48b896df9a97-attr-2-type" class="er entityLabel">String</text><rect height="22" width="83.60977172851562" y="46" x="54.095550537109375" class="er attributeBoxEven"/><text style="dominant-baseline: middle; font-size: 10.2px;" transform="translate(59.095550537109375,57)" y="0" x="0" id="text-entity-orders-b199f09d-589f-57c9-bdcc-48b896df9a97-attr-2-name" class="er entityLabel">orderStatus</text><rect height="22" width="54.095550537109375" y="68" x="0" class="er attributeBoxOdd"/><text style="dominant-baseline: middle; font-size: 10.2px;" transform="translate(5,79)" y="0" x="0" id="text-entity-orders-b199f09d-589f-57c9-bdcc-48b896df9a97-attr-3-type" class="er entityLabel">String</text><rect height="22" width="83.60977172851562" y="68" x="54.095550537109375" class="er attributeBoxOdd"/><text style="dominant-baseline: middle; font-size: 10.2px;" transform="translate(59.095550537109375,79)" y="0" x="0" id="text-entity-orders-b199f09d-589f-57c9-bdcc-48b896df9a97-attr-3-name" class="er entityLabel">totalPrice</text><rect height="22" width="54.095550537109375" y="90" x="0" class="er attributeBoxEven"/><text style="dominant-baseline: middle; font-size: 10.2px;" transform="translate(5,101)" y="0" x="0" id="text-entity-orders-b199f09d-589f-57c9-bdcc-48b896df9a97-attr-4-type" class="er entityLabel">String</text><rect height="22" width="83.60977172851562" y="90" x="54.095550537109375" class="er attributeBoxEven"/><text style="dominant-baseline: middle; font-size: 10.2px;" transform="translate(59.095550537109375,101)" y="0" x="0" id="text-entity-orders-b199f09d-589f-57c9-bdcc-48b896df9a97-attr-4-name" class="er entityLabel">paymentMethod</text><rect height="22" width="54.095550537109375" y="112" x="0" class="er attributeBoxOdd"/><text style="dominant-baseline: middle; font-size: 10.2px;" transform="translate(5,123)" y="0" x="0" id="text-entity-orders-b199f09d-589f-57c9-bdcc-48b896df9a97-attr-5-type" class="er entityLabel">DateTime</text><rect height="22" width="83.60977172851562" y="112" x="54.095550537109375" class="er attributeBoxOdd"/><text style="dominant-baseline: middle; font-size: 10.2px;" transform="translate(59.095550537109375,123)" y="0" x="0" id="text-entity-orders-b199f09d-589f-57c9-bdcc-48b896df9a97-attr-5-name" class="er entityLabel">created_at</text></g><g transform="translate(40.70335388183594,554 )" id="entity-ordersitems-a5377f5a-a737-567e-962a-109245143948"><rect height="90" width="100" y="0" x="0" class="er entityBox"/><text style="dominant-baseline: middle; text-anchor: middle; font-size: 12px;" transform="translate(50,12)" y="0" x="0" id="text-entity-ordersitems-a5377f5a-a737-567e-962a-109245143948" class="er entityLabel">ordersitems</text><rect height="22" width="44.105628967285156" y="24" x="0" class="er attributeBoxOdd"/><text style="dominant-baseline: middle; font-size: 10.2px;" transform="translate(5,35)" y="0" x="0" id="text-entity-ordersitems-a5377f5a-a737-567e-962a-109245143948-attr-1-type" class="er entityLabel">String</text><rect height="22" width="55.894371032714844" y="24" x="44.105628967285156" class="er attributeBoxOdd"/><text style="dominant-baseline: middle; font-size: 10.2px;" transform="translate(49.105628967285156,35)" y="0" x="0" id="text-entity-ordersitems-a5377f5a-a737-567e-962a-109245143948-attr-1-name" class="er entityLabel">id</text><rect height="22" width="44.105628967285156" y="46" x="0" class="er attributeBoxEven"/><text style="dominant-baseline: middle; font-size: 10.2px;" transform="translate(5,57)" y="0" x="0" id="text-entity-ordersitems-a5377f5a-a737-567e-962a-109245143948-attr-2-type" class="er entityLabel">String</text><rect height="22" width="55.894371032714844" y="46" x="44.105628967285156" class="er attributeBoxEven"/><text style="dominant-baseline: middle; font-size: 10.2px;" transform="translate(49.105628967285156,57)" y="0" x="0" id="text-entity-ordersitems-a5377f5a-a737-567e-962a-109245143948-attr-2-name" class="er entityLabel">title</text><rect height="22" width="44.105628967285156" y="68" x="0" class="er attributeBoxOdd"/><text style="dominant-baseline: middle; font-size: 10.2px;" transform="translate(5,79)" y="0" x="0" id="text-entity-ordersitems-a5377f5a-a737-567e-962a-109245143948-attr-3-type" class="er entityLabel">Int</text><rect height="22" width="55.894371032714844" y="68" x="44.105628967285156" class="er attributeBoxOdd"/><text style="dominant-baseline: middle; font-size: 10.2px;" transform="translate(49.105628967285156,79)" y="0" x="0" id="text-entity-ordersitems-a5377f5a-a737-567e-962a-109245143948-attr-3-name" class="er entityLabel">quantity</text></g><rect height="14" width="33.998046875" y="263.5669250488281" x="30.07235336303711" class="er relationshipLabelBox"/><text style="text-anchor: middle; dominant-baseline: middle; font-size: 12px;" y="270.5669250488281" x="47.07137680053711" id="rel1" class="er relationshipLabel">orders</text><rect height="14" width="60.177734375" y="944.5392456054688" x="19.010684967041016" class="er relationshipLabelBox"/><text style="text-anchor: middle; dominant-baseline: middle; font-size: 12px;" y="951.5392456054688" x="49.099552154541016" id="rel2" class="er relationshipLabel">ingredients</text><rect height="14" width="63.458984375" y="686.0357666015625" x="101.25828552246094" class="er relationshipLabelBox"/><text style="text-anchor: middle; dominant-baseline: middle; font-size: 12px;" y="693.0357666015625" x="132.98777770996094" id="rel3" class="er relationshipLabel">ordersItems</text><rect height="14" width="33.06640625" y="944.53955078125" x="115.77421569824219" class="er relationshipLabelBox"/><text style="text-anchor: middle; dominant-baseline: middle; font-size: 12px;" y="951.53955078125" x="132.3074188232422" id="rel4" class="er relationshipLabel">dishes</text><rect height="14" width="23.958984375" y="263.56689453125" x="122.35516357421875" class="er relationshipLabelBox"/><text style="text-anchor: middle; dominant-baseline: middle; font-size: 12px;" y="270.56689453125" x="134.33465576171875" id="rel5" class="er relationshipLabel">user</text><rect height="14" width="63.458984375" y="497.7294616699219" x="16.9627685546875" class="er relationshipLabelBox"/><text style="text-anchor: middle; dominant-baseline: middle; font-size: 12px;" y="504.7294616699219" x="48.6922607421875" id="rel6" class="er relationshipLabel">ordersItems</text><rect height="14" width="33.998046875" y="497.7294006347656" x="115.71566772460938" class="er relationshipLabelBox"/><text style="text-anchor: middle; dominant-baseline: middle; font-size: 12px;" y="504.7294006347656" x="132.71469116210938" id="rel7" class="er relationshipLabel">orders</text><rect height="14" width="33.06640625" y="686.03564453125" x="31.885963439941406" class="er relationshipLabelBox"/><text style="text-anchor: middle; dominant-baseline: middle; font-size: 12px;" y="693.03564453125" x="48.419166564941406" id="rel8" class="er relationshipLabel">dishes</text></svg>